<?xml version="1.0" encoding="UTF-8" standalone="no"?>
<svg
   xmlns:dc="http://purl.org/dc/elements/1.1/"
   xmlns:cc="http://creativecommons.org/ns#"
   xmlns:rdf="http://www.w3.org/1999/02/22-rdf-syntax-ns#"
   xmlns:svg="http://www.w3.org/2000/svg"
   xmlns="http://www.w3.org/2000/svg"
   xmlns:sodipodi="http://sodipodi.sourceforge.net/DTD/sodipodi-0.dtd"
   xmlns:inkscape="http://www.inkscape.org/namespaces/inkscape"
   id="Vrstva_1"
   viewBox="0 0 228.14792 55.2"
   version="1.1"
   sodipodi:docname="logo_napis.svg"
   width="228.14792"
   height="55.200001"
   inkscape:version="0.92.3 (2405546, 2018-03-11)">
  <metadata
     id="metadata15">
    <rdf:RDF>
      <cc:Work
         rdf:about="">
        <dc:format>image/svg+xml</dc:format>
        <dc:type
           rdf:resource="http://purl.org/dc/dcmitype/StillImage" />
        <dc:title></dc:title>
      </cc:Work>
    </rdf:RDF>
  </metadata>
  <defs
     id="defs13" />
  <sodipodi:namedview
     pagecolor="#ffffff"
     bordercolor="#666666"
     borderopacity="1"
     objecttolerance="10"
     gridtolerance="10"
     guidetolerance="10"
     inkscape:pageopacity="0"
     inkscape:pageshadow="2"
     inkscape:window-width="1853"
     inkscape:window-height="1025"
     id="namedview11"
     showgrid="false"
     fit-margin-top="0"
     fit-margin-left="0"
     fit-margin-right="52.7"
     fit-margin-bottom="0"
     inkscape:zoom="2.1376811"
     inkscape:cx="278.54131"
     inkscape:cy="-41.433666"
     inkscape:window-x="67"
     inkscape:window-y="27"
     inkscape:window-maximized="1"
     inkscape:current-layer="Vrstva_1" />
  <style
     id="style2">
    .st0{fill:none}
  </style>
  <path
     d="M 24.7,7.2 C 18.8,7.2 13.3,9.5 9.2,13.6 5,17.7 2.7,23.3 2.7,29.1 2.7,35 5,40.5 9.1,44.7 c 4.2,4.1 9.7,6.4 15.5,6.4 5.9,0 11.4,-2.3 15.5,-6.4 4.2,-4.1 6.4,-9.7 6.4,-15.5 0,-5.9 -2.3,-11.4 -6.4,-15.5 -4,-4.3 -9.5,-6.5 -15.4,-6.5 m 0,41.8 C 13.7,49 4.8,40.1 4.8,29.1 c 0,-11 8.9,-19.9 19.9,-19.9 11,0 19.9,8.9 19.9,19.9 0,11 -8.9,19.9 -19.9,19.9"
     id="path4"
     inkscape:connector-curvature="0" />
  <path
     d="M 18.1,16.1 V 13 h -1.9 v 3.6 c -1.3,0.4 -2.1,0.8 -1.9,1.1 0.4,-0.1 1.1,-0.2 1.9,-0.1 V 36 c -2,3.8 0.9,9.7 0.9,9.7 0,0 -2.1,-6.3 2.6,-9.3 C 24,33.7 39,34.9 38.9,26.5 38.8,14.6 25,14.6 18.1,16.1 m 6.1,11.6 c -0.7,3.2 -4.1,4.8 -6.2,6.2 V 17.8 c 3.5,0.8 7.6,3.5 6.2,9.9"
     id="path6"
     inkscape:connector-curvature="0" />
  <path
     class="st0"
     d="M 0,0 H 52.2 V 55.2 H 0 Z"
     id="path8"
     inkscape:connector-curvature="0"
     style="fill:none" />
  <text
     xml:space="preserve"
     style="font-style:normal;font-variant:normal;font-weight:normal;font-stretch:normal;font-size:12px;line-height:1.25;font-family:'Roboto Condensed';-inkscape-font-specification:'Roboto Condensed, ';letter-spacing:0px;word-spacing:0px;fill:#000000;fill-opacity:1;stroke:none"
     x="58.364582"
     y="23.777084"
     id="text827"><tspan
       sodipodi:role="line"
       id="tspan825"
       x="58.364582"
       y="23.777084"
       style="font-weight:normal;font-size:21.33333397px">PIRÁTI</tspan><tspan
       sodipodi:role="line"
       x="58.364582"
       y="50.443752"
       id="tspan829"
       style="font-weight:normal;font-size:21.33333397px">LITOMĚŘICKO</tspan></text>
</svg>
