<?xml version="1.0" encoding="UTF-8" standalone="no"?>
<!-- Generator: Adobe Illustrator 15.0.0, SVG Export Plug-In . SVG Version: 6.00 Build 0)  -->

<svg
   xmlns:dc="http://purl.org/dc/elements/1.1/"
   xmlns:cc="http://creativecommons.org/ns#"
   xmlns:rdf="http://www.w3.org/1999/02/22-rdf-syntax-ns#"
   xmlns:svg="http://www.w3.org/2000/svg"
   xmlns="http://www.w3.org/2000/svg"
   xmlns:xlink="http://www.w3.org/1999/xlink"
   xmlns:sodipodi="http://sodipodi.sourceforge.net/DTD/sodipodi-0.dtd"
   xmlns:inkscape="http://www.inkscape.org/namespaces/inkscape"
   version="1.1"
   id="Vrstva_1"
   x="0px"
   y="0px"
   width="404.53897"
   height="226.55399"
   viewBox="0 0 404.53899 226.55399"
   enable-background="new 0 0 850.394 425.197"
   xml:space="preserve"
   inkscape:version="0.91 r13725"
   sodipodi:docname="logo.svg"><metadata
     id="metadata81"><rdf:RDF><cc:Work
         rdf:about=""><dc:format>image/svg+xml</dc:format><dc:type
           rdf:resource="http://purl.org/dc/dcmitype/StillImage" /><dc:title></dc:title></cc:Work></rdf:RDF></metadata><defs
     id="defs79"><clipPath
       id="SVGID_2_-3"><use
         xlink:href="#SVGID_1_"
         overflow="visible"
         id="use9-6"
         style="overflow:visible"
         x="0"
         y="0"
         width="100%"
         height="100%" /></clipPath><clipPath
       id="SVGID_2_-5"><use
         height="100%"
         width="100%"
         y="0"
         x="0"
         style="overflow:visible"
         xlink:href="#SVGID_1_-2"
         overflow="visible"
         id="use9-3" /></clipPath><clipPath
       id="clipPath3456"><use
         height="100%"
         width="100%"
         y="0"
         x="0"
         style="overflow:visible"
         xlink:href="#SVGID_1_-2"
         overflow="visible"
         id="use3458" /></clipPath><clipPath
       id="clipPath3460"><use
         height="100%"
         width="100%"
         y="0"
         x="0"
         style="overflow:visible"
         xlink:href="#SVGID_1_-2"
         overflow="visible"
         id="use3462" /></clipPath><clipPath
       id="SVGID_2_-5-7"><rect
         height="425.19699"
         width="850.39398"
         id="use9-3-0"
         x="0"
         y="0" /></clipPath><clipPath
       id="clipPath4324"><rect
         height="425.19699"
         width="850.39398"
         id="use4326"
         x="0"
         y="0" /></clipPath><clipPath
       id="SVGID_2_-1"><use
         xlink:href="#SVGID_1_"
         overflow="visible"
         id="use9-8"
         style="overflow:visible"
         x="0"
         y="0"
         width="100%"
         height="100%" /></clipPath><clipPath
       id="SVGID_2_-5-9"><use
         height="100%"
         width="100%"
         y="0"
         x="0"
         style="overflow:visible"
         xlink:href="#SVGID_1_-2-7"
         overflow="visible"
         id="use9-3-2" /></clipPath><clipPath
       id="clipPath4443"><use
         height="100%"
         width="100%"
         y="0"
         x="0"
         style="overflow:visible"
         xlink:href="#SVGID_1_-2-7"
         overflow="visible"
         id="use4445" /></clipPath><defs
       id="defs5-6"><rect
         height="425.19699"
         width="850.39398"
         id="SVGID_1_-2"
         x="0"
         y="0" /></defs><clipPath
       id="clipPath3467"><use
         id="use3469"
         overflow="visible"
         xlink:href="#SVGID_1_-2"
         style="overflow:visible"
         x="0"
         y="0"
         width="100%"
         height="100%" /></clipPath><clipPath
       id="SVGID_2_-5-73"><use
         height="100%"
         width="100%"
         y="0"
         x="0"
         style="overflow:visible"
         xlink:href="#SVGID_1_-2"
         overflow="visible"
         id="use9-3-6" /></clipPath></defs><sodipodi:namedview
     pagecolor="#ffffff"
     bordercolor="#666666"
     borderopacity="1"
     objecttolerance="10"
     gridtolerance="10"
     guidetolerance="10"
     inkscape:pageopacity="0"
     inkscape:pageshadow="2"
     inkscape:window-width="1366"
     inkscape:window-height="704"
     id="namedview77"
     showgrid="false"
     showguides="false"
     fit-margin-top="0"
     fit-margin-left="0"
     fit-margin-right="0"
     fit-margin-bottom="0"
     inkscape:zoom="1.4299255"
     inkscape:cx="315.97513"
     inkscape:cy="66.986621"
     inkscape:window-x="0"
     inkscape:window-y="27"
     inkscape:window-maximized="1"
     inkscape:current-layer="Vrstva_1" /><path
     style="fill:#ffffff"
     clip-path="url(#SVGID_2_-1)"
     d="m 254.885,220.26 c 0,62.555 -50.706,113.278 -113.262,113.278 -62.552,0 -113.277,-50.724 -113.277,-113.278 0,-62.553 50.725,-113.276 113.277,-113.276 62.556,0 113.262,50.724 113.262,113.276"
     id="path11-7"
     inkscape:connector-curvature="0"
     transform="translate(149.654,-106.984)" /><g
     transform="translate(-28.346,-106.984)"
     id="g3-5-2"><defs
       id="defs5-6-3"><rect
         y="0"
         x="0"
         id="SVGID_1_-2-7"
         width="850.39398"
         height="425.19699" /></defs><clipPath
       id="clipPath3467-5"><use
         height="100%"
         width="100%"
         y="0"
         x="0"
         style="overflow:visible"
         xlink:href="#SVGID_1_-2-7"
         overflow="visible"
         id="use3469-9" /></clipPath><path
       style="fill:#ffffff"
       inkscape:connector-curvature="0"
       clip-path="url(#SVGID_2_-5-9)"
       d="m 254.885,220.26 c 0,62.555 -50.706,113.278 -113.262,113.278 -62.552,0 -113.277,-50.724 -113.277,-113.278 0,-62.553 50.725,-113.276 113.277,-113.276 62.556,0 113.262,50.724 113.262,113.276"
       id="path11-9-2" /></g><path
     id="path11-9"
     d="m 254.885,220.26 c 0,62.555 -50.706,113.278 -113.262,113.278 -62.552,0 -113.277,-50.724 -113.277,-113.278 0,-62.553 50.725,-113.276 113.277,-113.276 62.556,0 113.262,50.724 113.262,113.276"
     clip-path="url(#SVGID_2_-5)"
     inkscape:connector-curvature="0"
     style="fill:#ffffff"
     transform="translate(149.654,-106.984)" /><path
     style="opacity:1;fill:#60b44c;fill-opacity:1"
     id="path13-1"
     d="m 141.623,311.816 c -50.494,0 -91.551,-41.057 -91.551,-91.556 0,-50.479 41.057,-91.551 91.551,-91.551 50.481,0 91.589,41.073 91.589,91.551 0,50.499 -41.108,91.556 -91.589,91.556 M 213.151,148.72 c -19.091,-19.105 -44.498,-29.643 -71.528,-29.643 -26.992,0 -52.403,10.538 -71.555,29.643 -19.093,19.104 -29.628,44.517 -29.628,71.54 0,27.06 10.535,52.473 29.628,71.543 19.152,19.105 44.563,29.613 71.555,29.613 27.03,0 52.437,-10.508 71.528,-29.613 19.154,-19.07 29.661,-44.483 29.661,-71.543 0,-27.023 -10.507,-52.435 -29.661,-71.54"
     clip-path="url(#SVGID_2_-5)"
     inkscape:connector-curvature="0"
     transform="translate(149.654,-107.68334)" /><g
     id="g3"
     transform="translate(-28.3565,-106.9695)"><defs
       id="defs5"><rect
         y="0"
         x="0"
         id="SVGID_1_"
         width="850.39398"
         height="425.19699" /></defs><clipPath
       id="SVGID_2_"><use
         height="100%"
         width="100%"
         y="0"
         x="0"
         style="overflow:visible"
         xlink:href="#SVGID_1_"
         overflow="visible"
         id="use9" /></clipPath><path
       inkscape:connector-curvature="0"
       clip-path="url(#SVGID_2_)"
       d="m 141.623,311.816 c -50.494,0 -91.551,-41.057 -91.551,-91.556 0,-50.479 41.057,-91.551 91.551,-91.551 50.481,0 91.589,41.073 91.589,91.551 0,50.499 -41.108,91.556 -91.589,91.556 M 213.151,148.72 c -19.091,-19.105 -44.498,-29.643 -71.528,-29.643 -26.992,0 -52.403,10.538 -71.555,29.643 -19.093,19.104 -29.628,44.517 -29.628,71.54 0,27.06 10.535,52.473 29.628,71.543 19.152,19.105 44.563,29.613 71.555,29.613 27.03,0 52.437,-10.508 71.528,-29.613 19.154,-19.07 29.661,-44.483 29.661,-71.543 0,-27.023 -10.507,-52.435 -29.661,-71.54"
       id="path13" /><path
       inkscape:connector-curvature="0"
       clip-path="url(#SVGID_2_)"
       d="m 139.572,213.474 c -3.085,14.675 -19.089,22.305 -28.432,28.657 l 0,-74.145 c 15.922,3.814 34.639,16.051 28.432,45.488 m -28.432,-53.408 0,-14.159 -8.858,0 0,16.357 c -5.981,1.843 -9.471,3.751 -8.891,4.931 1.973,-0.551 5.14,-0.792 8.891,-0.566 l 0,85.17 c -9.018,17.647 3.976,44.661 3.976,44.661 0,0 -9.78,-29.001 11.961,-42.706 19.978,-12.575 88.884,-6.678 88.626,-45.551 -0.307,-55.087 -63.864,-54.763 -95.705,-48.137"
       id="path15" /></g><g
     transform="matrix(0.28325594,0,0,0.28325594,206.23411,29.515609)"
     id="#03de75ff"
     style="fill:#60b44c;fill-opacity:1"><path
       style="opacity:1;fill:#60b44c;fill-opacity:1"
       inkscape:connector-curvature="0"
       d="m 141.37,89.17 c 105.89,-0.02 211.78,-0.01 317.67,0 -0.1,30.51 0.23,61.06 -0.17,91.57 -60.55,76.78 -121.38,153.36 -182.03,230.07 60.73,0.02 121.47,-0.01 182.2,0.01 0.01,30.48 0.01,60.96 0,91.43 -105.89,0.02 -211.77,0 -317.66,0.01 -0.06,-29.42 0.03,-58.84 -0.04,-88.27 0.13,-1.3 -0.32,-2.84 0.62,-3.92 60.51,-76.47 121.07,-152.9 181.56,-229.39 -60.72,-0.04 -121.43,0.01 -182.15,-0.02 -0.01,-30.5 -0.01,-61 0,-91.49 z"
       id="path8" /></g><path
     style="opacity:1;fill:#60b44c;fill-opacity:1"
     clip-path="url(#SVGID_2_-5-73)"
     d="m 586.74023,16.287109 c -26.99199,0 -52.40268,10.539533 -71.55468,29.644532 -19.093,19.103998 -29.62696,44.516064 -29.62696,71.539059 0,5.16593 0.38648,10.27196 1.14063,15.28516 l 9.77148,0 c -0.83862,-4.97231 -1.28125,-10.07734 -1.28125,-15.28516 0,-50.478994 41.05679,-91.550778 91.55078,-91.550778 50.481,0 91.58985,41.072784 91.58985,91.550778 0,50.499 -41.10885,91.55664 -91.58985,91.55664 -26.08956,0 -49.65836,-10.96277 -66.34765,-28.52343 l 0,11.86914 -1.67383,0 c 18.69055,16.97246 42.65686,26.2539 68.02148,26.2539 27.03,0 52.4383,-10.50828 71.5293,-29.61328 19.154,-19.07 29.66016,-44.48297 29.66016,-71.54297 0,-27.022995 -10.50616,-52.434061 -29.66016,-71.539059 -19.091,-19.104999 -44.4993,-29.644532 -71.5293,-29.644532 z"
     transform="translate(-295.46458,-4.8939593)"
     id="path13-1-1"
     inkscape:connector-curvature="0" /></svg>